<svg width="138" height="33" viewBox="0 0 138 33" fill="none" xmlns="http://www.w3.org/2000/svg">
<g clip-path="url(#clip0_310_222)">
<path fill-rule="evenodd" clip-rule="evenodd" d="M1.66683 0.0730991H30.8939C31.8135 0.0730991 32.5607 0.827478 32.5607 1.75594V31.2638C32.5607 32.1922 31.8135 32.9466 30.8939 32.9466H1.66683C0.747201 32.9466 0 32.1922 0 31.2638V1.75594C0 0.827478 0.747201 0.0730991 1.66683 0.0730991Z" fill="#00508A"/>
<path fill-rule="evenodd" clip-rule="evenodd" d="M4.91511 24.9665H7.24292V14.8984V12.4612V8.05098H4.91511V24.9665Z" fill="white"/>
<path fill-rule="evenodd" clip-rule="evenodd" d="M4.9126 12.4567H9.94184C12.9019 12.6308 15.1148 14.1395 15.1148 18.2886V24.991H13.2468C12.9306 24.8749 12.7869 24.6718 12.7869 24.3817V18.3176C12.7869 16.4897 12.4133 15.01 9.79815 14.981H7.18294L4.88387 12.4857L4.9126 12.4567Z" fill="white"/>
<path fill-rule="evenodd" clip-rule="evenodd" d="M17.7875 24.963H22.2133C23.3915 24.963 27.5299 24.7309 27.6448 18.957C27.7023 15.9685 25.9205 12.4287 20.5752 12.5158C20.5752 12.5158 19.3107 12.5158 19.2819 12.5158V14.953H20.5752C23.7651 15.011 25.1446 16.4908 25.1733 18.7539C25.1733 20.3207 25.0584 22.4388 22.0983 22.4678H19.2819V8.01853H16.9541V24.0636C16.9541 24.4988 17.4427 24.963 17.8163 24.963H17.7875Z" fill="white"/>
<path fill-rule="evenodd" clip-rule="evenodd" d="M37.6769 20.1456H131.738V21.2481H37.6769V20.1456Z" fill="white"/>
<path d="M37.9617 17.4267V4.022H39.4274V9.82492H47.0718V4.022H48.5375V17.4267H47.0718V11.2176H39.4274V17.4267H37.9617ZM57.9637 13.5098V11.885C57.9637 10.6954 57.82 9.94098 57.5039 9.5928C57.2165 9.27364 56.5842 9.09955 55.6071 9.09955H54.9461C53.9978 9.09955 53.3655 9.27364 53.0781 9.5928C52.7908 9.91196 52.6471 10.6954 52.6471 11.885V13.5098C52.6471 14.7284 52.7908 15.4828 53.0781 15.8019C53.3655 16.1211 53.9978 16.2952 54.9461 16.2952H55.6071C56.5555 16.2952 57.1877 16.1211 57.5039 15.8019C57.7913 15.4828 57.9637 14.6994 57.9637 13.5098ZM54.9749 17.5718C53.5667 17.5718 52.5896 17.2817 52.0436 16.7304C51.4975 16.1791 51.2101 15.2216 51.2101 13.8289V11.5658C51.2101 10.1731 51.4975 9.21561 52.0436 8.63532C52.5896 8.08404 53.5667 7.7939 54.9749 7.7939H55.6359C57.0441 7.7939 58.0212 8.08404 58.5959 8.63532C59.142 9.1866 59.4293 10.1731 59.4293 11.5658V13.8289C59.4293 15.2216 59.142 16.1791 58.5959 16.7304C58.0499 17.2817 57.0441 17.5428 55.6646 17.5428H55.0036L54.9749 17.5718ZM61.556 14.6123H62.9642V14.8154C62.9642 15.3957 63.1366 15.8019 63.5102 16.034C63.8551 16.2662 64.5735 16.3532 65.6656 16.3532C66.8726 16.3532 67.6198 16.2371 67.9072 16.005C68.1946 15.7729 68.3383 15.3667 68.3383 14.7284C68.3383 14.0901 68.2233 13.6839 67.9934 13.4808C67.7635 13.2777 67.1887 13.1326 66.2691 13.1036C65.9242 13.1036 65.4644 13.0745 64.8897 13.0455C63.6252 13.0165 62.878 12.9295 62.6481 12.7844C62.3032 12.5813 62.0446 12.3202 61.9009 11.972C61.7572 11.6238 61.6709 11.1306 61.6709 10.4923C61.6709 9.44773 61.9296 8.72236 62.4756 8.34517C62.9929 7.96798 64.1712 7.7939 65.9817 7.7939C67.3899 7.7939 68.3095 7.96798 68.8268 8.31616C69.3154 8.66433 69.574 9.30265 69.574 10.1731H68.1946V10.086C68.1946 9.65083 68.0222 9.3897 67.6486 9.21561C67.275 9.04152 66.5565 8.98349 65.4932 8.98349C64.4298 8.98349 63.7976 9.07054 63.5102 9.27364C63.2228 9.47674 63.0791 9.85393 63.0791 10.4923C63.0791 10.8694 63.0791 11.1306 63.1654 11.2756C63.2228 11.4207 63.309 11.5368 63.4527 11.6238C63.7401 11.7689 64.3436 11.8559 65.3207 11.885C65.5506 11.885 65.7518 11.885 65.8955 11.885C66.6714 11.914 67.3037 11.943 67.7348 12.001C68.1946 12.059 68.5107 12.1171 68.6831 12.2041C69.1142 12.4072 69.4016 12.6683 69.574 13.0455C69.7465 13.4227 69.8327 13.945 69.8327 14.6123C69.8327 15.2797 69.7465 15.8309 69.574 16.2081C69.4016 16.5563 69.0855 16.8755 68.6544 17.1656C68.4532 17.3107 68.1084 17.3977 67.6773 17.4558C67.2175 17.5138 66.5852 17.5428 65.7518 17.5428C64.085 17.5428 62.9929 17.3397 62.4469 16.9625C61.9009 16.5853 61.6422 15.86 61.6422 14.8444V14.5833L61.556 14.6123ZM71.6145 9.15758V7.96798H72.764V5.82091H74.1435V7.96798H78.7416V9.15758H74.1435V14.3802C74.1435 15.1346 74.2584 15.6278 74.5171 15.889C74.747 16.1501 75.2068 16.2952 75.8965 16.2952C76.5862 16.2952 77.0173 16.1791 77.2472 15.918C77.4771 15.6568 77.5921 15.1636 77.5921 14.3802V14.0901H79.0003V14.1771C79.0003 15.5118 78.7704 16.4112 78.3393 16.8755C77.9082 17.3397 76.9886 17.5718 75.6091 17.5718C74.5458 17.5718 73.7986 17.3397 73.3675 16.8464C72.9364 16.3532 72.7353 15.4828 72.7353 14.2061V9.1866H71.5857L71.6145 9.15758ZM83.1961 9.82492H87.9954C88.7713 9.82492 89.2886 9.67984 89.576 9.3897C89.8347 9.09955 89.9784 8.49025 89.9784 7.53277C89.9784 6.57528 89.8347 6.05302 89.5473 5.79189C89.2599 5.55977 88.5414 5.44372 87.3632 5.44372H83.2248V9.82492H83.1961ZM83.1961 16.034H88.0241C88.915 16.034 89.4898 15.889 89.8059 15.6278C90.0933 15.3667 90.2657 14.6413 90.2657 13.4808C90.2657 12.5233 90.0933 11.885 89.7485 11.5948C89.4036 11.3047 88.5414 11.1596 87.1045 11.1596H83.1673V16.005L83.1961 16.034ZM81.7592 17.4267V4.022H87.9379C89.3749 4.022 90.3232 4.25412 90.783 4.68934C91.2429 5.12456 91.4728 6.02401 91.4728 7.38769C91.4728 8.43222 91.3578 9.15758 91.1279 9.56379C90.898 9.96999 90.4957 10.2601 89.9209 10.4342C90.6106 10.6083 91.0992 10.9275 91.3865 11.3917C91.6739 11.8559 91.7889 12.6103 91.7889 13.7129C91.7889 15.1926 91.5015 16.1791 90.9267 16.7014C90.352 17.2236 89.2024 17.4558 87.4494 17.4558H81.7304L81.7592 17.4267ZM100.755 13.5098V11.885C100.755 10.6954 100.612 9.94098 100.295 9.5928C100.008 9.27364 99.3759 9.09955 98.3987 9.09955H97.7378C96.7894 9.09955 96.1571 9.27364 95.8698 9.5928C95.5824 9.91196 95.4387 10.6954 95.4387 11.885V13.5098C95.4387 14.7284 95.5824 15.4828 95.8698 15.8019C96.1571 16.1211 96.7894 16.2952 97.7378 16.2952H98.3987C99.3471 16.2952 99.9794 16.1211 100.295 15.8019C100.583 15.4828 100.755 14.6994 100.755 13.5098ZM97.7665 17.5718C96.3583 17.5718 95.3812 17.2817 94.8352 16.7304C94.2891 16.1791 94.0018 15.2216 94.0018 13.8289V11.5658C94.0018 10.1731 94.2891 9.21561 94.8352 8.63532C95.3812 8.08404 96.3583 7.7939 97.7665 7.7939H98.4275C99.8357 7.7939 100.813 8.08404 101.388 8.63532C101.934 9.1866 102.221 10.1731 102.221 11.5658V13.8289C102.221 15.2216 101.934 16.1791 101.388 16.7304C100.842 17.2817 99.8357 17.5428 98.4562 17.5428H97.7952L97.7665 17.5718ZM111.072 13.5098V11.885C111.072 10.6954 110.929 9.94098 110.613 9.5928C110.325 9.27364 109.693 9.09955 108.716 9.09955H108.055C107.106 9.09955 106.474 9.27364 106.187 9.5928C105.899 9.91196 105.756 10.6954 105.756 11.885V13.5098C105.756 14.7284 105.899 15.4828 106.187 15.8019C106.474 16.1211 107.106 16.2952 108.055 16.2952H108.716C109.664 16.2952 110.296 16.1211 110.613 15.8019C110.9 15.4828 111.072 14.6994 111.072 13.5098ZM108.084 17.5718C106.675 17.5718 105.698 17.2817 105.152 16.7304C104.606 16.1791 104.319 15.2216 104.319 13.8289V11.5658C104.319 10.1731 104.606 9.21561 105.152 8.63532C105.698 8.08404 106.675 7.7939 108.084 7.7939H108.745C110.153 7.7939 111.13 8.08404 111.705 8.63532C112.251 9.1866 112.538 10.1731 112.538 11.5658V13.8289C112.538 15.2216 112.251 16.1791 111.705 16.7304C111.159 17.2817 110.153 17.5428 108.773 17.5428H108.112L108.084 17.5718ZM115.01 17.4558V4.022H116.389V11.6528H116.82L119.895 7.96798H121.476L117.941 12.2041L122.194 17.4558H120.441L116.849 12.9585H116.418V17.4558H115.038H115.01ZM123.516 14.6413H124.924V14.8444C124.924 15.4247 125.097 15.8309 125.47 16.0631C125.815 16.2952 126.534 16.3822 127.626 16.3822C128.833 16.3822 129.58 16.2662 129.867 16.034C130.155 15.8019 130.298 15.3957 130.298 14.7574C130.298 14.1191 130.184 13.7129 129.954 13.5098C129.724 13.3067 129.149 13.1616 128.229 13.1326C127.884 13.1326 127.425 13.1036 126.85 13.0746C125.585 13.0455 124.838 12.9585 124.608 12.8134C124.263 12.6103 124.005 12.3492 123.861 12.001C123.717 11.6528 123.631 11.1596 123.631 10.5213C123.631 9.47674 123.89 8.75138 124.436 8.37419C124.953 7.997 126.131 7.82291 127.942 7.82291C129.35 7.82291 130.27 7.997 130.787 8.34517C131.276 8.69335 131.534 9.33167 131.534 10.2021H130.155V10.1151C130.155 9.67984 129.982 9.41871 129.609 9.24463C129.235 9.07054 128.517 9.01251 127.453 9.01251C126.39 9.01251 125.758 9.09955 125.47 9.30266C125.183 9.50576 125.039 9.88295 125.039 10.5213C125.039 10.8985 125.039 11.1596 125.126 11.3047C125.183 11.4497 125.269 11.5658 125.413 11.6528C125.7 11.7979 126.304 11.885 127.281 11.914C127.511 11.914 127.712 11.914 127.856 11.914C128.632 11.943 129.264 11.972 129.695 12.03C130.155 12.0881 130.471 12.1461 130.643 12.2331C131.074 12.4362 131.362 12.6974 131.534 13.0746C131.707 13.4517 131.793 13.974 131.793 14.6413C131.793 15.3087 131.707 15.86 131.534 16.2371C131.362 16.5853 131.046 16.9045 130.615 17.1946C130.413 17.3397 130.069 17.4267 129.637 17.4848C129.178 17.5428 128.545 17.5718 127.712 17.5718C126.045 17.5718 124.953 17.3687 124.407 16.9915C123.861 16.6143 123.602 15.889 123.602 14.8735V14.6123L123.516 14.6413Z" fill="white"/>
<path d="M37.6769 24.4185V23.8382H41.844V24.4185H40.0622V29.438H39.4299V24.4185H37.6769ZM42.275 29.438V23.8382H42.8211V26.0143C42.9073 25.8112 43.0797 25.6661 43.2809 25.55C43.4821 25.463 43.7694 25.405 44.1143 25.405C44.6316 25.405 44.9765 25.521 45.2064 25.7241C45.4075 25.9272 45.5225 26.3044 45.5225 26.8267V29.438H44.9477V26.9717C44.9477 26.5655 44.8902 26.2754 44.7753 26.1593C44.6603 26.0433 44.4304 25.9562 44.0856 25.9562C43.6832 25.9562 43.3671 26.0433 43.1947 26.2464C42.9935 26.4205 42.9073 26.7396 42.9073 27.1458V29.438H42.3325H42.275ZM47.0456 27.0588H49.2585V26.9137C49.2585 26.5365 49.201 26.3044 49.0573 26.1593C48.9136 26.0143 48.655 25.9562 48.2814 25.9562H48.0227C47.6204 25.9562 47.3618 26.0143 47.2468 26.1593C47.1318 26.3044 47.0456 26.5365 47.0456 26.9137V27.0588ZM48.0227 29.467C47.448 29.467 47.0169 29.3509 46.787 29.1188C46.5571 28.8867 46.4421 28.4805 46.4421 27.9002V26.9717C46.4421 26.3915 46.5571 25.9853 46.787 25.7531C47.0169 25.521 47.4192 25.405 48.0227 25.405H48.2814C48.8562 25.405 49.2872 25.521 49.5171 25.7531C49.747 25.9853 49.862 26.3915 49.862 26.9717V27.5811H47.0456C47.0456 27.5811 47.0456 27.6681 47.0456 27.7261C47.0456 27.7842 47.0456 27.8422 47.0456 27.9292C47.0456 28.3354 47.1031 28.6256 47.2468 28.7416C47.3618 28.8867 47.6491 28.9447 48.0227 28.9447H48.2814C48.6262 28.9447 48.8849 28.8867 48.9998 28.7997C49.1435 28.7126 49.2298 28.5095 49.2298 28.2774H49.8333C49.8045 28.7126 49.6608 29.0318 49.4309 29.2059C49.1723 29.409 48.7987 29.496 48.2814 29.496H48.0227V29.467ZM54.6039 29.409V23.8092H55.1786V29.409H54.6039ZM58.8571 28.3935V27.9873C58.8571 27.7842 58.7709 27.6681 58.5698 27.5811C58.3686 27.494 58.0812 27.436 57.6501 27.436C57.2765 27.436 57.0179 27.494 56.9029 27.5811C56.788 27.6681 56.7018 27.8712 56.7018 28.1323C56.7018 28.4515 56.7592 28.6546 56.9029 28.7416C57.0466 28.8577 57.3053 28.8867 57.7076 28.8867C58.0812 28.8867 58.3399 28.8287 58.541 28.7416C58.7422 28.6546 58.8284 28.5385 58.8284 28.3644L58.8571 28.3935ZM58.8859 28.9738C58.7997 29.1478 58.656 29.2639 58.4548 29.3219C58.2536 29.409 57.995 29.438 57.6501 29.438C57.0466 29.438 56.6155 29.3509 56.4144 29.1769C56.2132 29.0028 56.0983 28.6836 56.0983 28.1904C56.0983 27.9002 56.0982 27.6971 56.1845 27.523C56.2419 27.378 56.2994 27.2329 56.4144 27.1458C56.5006 27.0588 56.6443 27.0008 56.8167 26.9717C56.9891 26.9427 57.2765 26.9137 57.5927 26.9137C57.9088 26.9137 58.2249 26.9427 58.3973 27.0008C58.5985 27.0588 58.7135 27.1458 58.8284 27.2909V26.5946C58.8284 26.2754 58.7709 26.0723 58.656 25.9562C58.541 25.8692 58.2249 25.8112 57.7076 25.8112C57.334 25.8112 57.1041 25.8402 56.9891 25.9272C56.8742 26.0143 56.8167 26.1593 56.8167 26.3624H56.2419V26.2754C56.2419 25.9272 56.3569 25.6951 56.5581 25.55C56.788 25.405 57.1616 25.3469 57.6789 25.3469C58.0812 25.3469 58.3973 25.3469 58.6272 25.405C58.8571 25.434 59.0008 25.492 59.1158 25.579C59.2307 25.6661 59.317 25.7821 59.3457 25.9272C59.4032 26.0723 59.4032 26.2754 59.4032 26.6236V29.409H58.8859V29.0028V28.9738ZM60.524 29.38V25.405H61.07V25.9562C61.1562 25.7531 61.3287 25.6081 61.5298 25.492C61.731 25.405 62.0184 25.3469 62.3632 25.3469C62.8805 25.3469 63.2254 25.463 63.4553 25.6661C63.6565 25.8692 63.7714 26.2464 63.7714 26.7686V29.38H63.1967V26.9137C63.1967 26.5075 63.1392 26.2174 63.0242 26.1013C62.9093 25.9853 62.6794 25.8982 62.3345 25.8982C61.9322 25.8982 61.616 25.9853 61.4436 26.1884C61.2424 26.3915 61.1562 26.6816 61.1562 27.0878V29.38H60.5815H60.524ZM67.5362 27.7261V27.0878C67.5362 26.6816 67.45 26.3624 67.2488 26.1884C67.0476 26.0143 66.7602 25.8982 66.3292 25.8982C65.9556 25.8982 65.6969 25.9562 65.582 26.1013C65.467 26.2464 65.3808 26.5655 65.3808 27.0588V27.7261C65.3808 28.2194 65.4383 28.5385 65.582 28.6836C65.6969 28.8287 65.9556 28.8867 66.3292 28.8867C66.7602 28.8867 67.0476 28.7997 67.2488 28.5966C67.45 28.4225 67.5362 28.1033 67.5362 27.6971V27.7261ZM68.1109 25.405V29.3219C68.1109 29.9022 67.996 30.3084 67.7661 30.5405C67.5362 30.7727 67.1338 30.8887 66.5591 30.8887H66.3004C65.7831 30.8887 65.4095 30.8017 65.1796 30.5986C64.9497 30.3955 64.806 30.1053 64.7773 29.6701H65.3808C65.3808 29.9312 65.4957 30.1053 65.6107 30.1924C65.7544 30.2794 65.9843 30.3374 66.3292 30.3374H66.5878C66.9327 30.3374 67.1626 30.2794 67.335 30.1634C67.4787 30.0473 67.5649 29.8732 67.5649 29.6121V28.7997C67.45 29.0318 67.3063 29.1769 67.1051 29.2639C66.9039 29.3509 66.6453 29.409 66.3292 29.409C65.7831 29.409 65.3808 29.2929 65.1509 29.0608C64.921 28.8287 64.806 28.4225 64.806 27.8422V26.9137C64.806 26.3334 64.921 25.9272 65.1509 25.6951C65.3808 25.463 65.7831 25.3469 66.3292 25.3469C66.674 25.3469 66.9327 25.405 67.1338 25.521C67.335 25.6371 67.4787 25.8112 67.5649 26.0433V25.434H68.1109V25.405ZM72.4217 25.405V29.38H71.8757V28.8287C71.7895 29.0318 71.6458 29.1769 71.4159 29.2639C71.2147 29.3509 70.9273 29.409 70.5825 29.409C70.0652 29.409 69.7203 29.2929 69.4904 29.0898C69.2892 28.8867 69.1743 28.5095 69.1743 27.9873V25.3759H69.749V27.8422C69.749 28.2484 69.8065 28.5385 69.9215 28.6546C70.0364 28.7707 70.2663 28.8577 70.6399 28.8577C71.0423 28.8577 71.3584 28.7706 71.5308 28.5675C71.732 28.3935 71.8182 28.0743 71.8182 27.6681V25.3469H72.393L72.4217 25.405ZM76.1002 28.3644V27.9582C76.1002 27.7551 76.014 27.6391 75.8129 27.552C75.6117 27.465 75.3243 27.407 74.8932 27.407C74.5196 27.407 74.261 27.465 74.146 27.552C74.0311 27.6391 73.9449 27.8422 73.9449 28.1033C73.9449 28.4225 74.0023 28.6256 74.146 28.7126C74.2897 28.8287 74.5484 28.8577 74.9507 28.8577C75.3243 28.8577 75.583 28.7997 75.7841 28.7126C75.9853 28.6256 76.0715 28.5095 76.0715 28.3354L76.1002 28.3644ZM76.129 28.9447C76.0428 29.1188 75.8991 29.2349 75.6979 29.2929C75.4967 29.38 75.2381 29.409 74.8932 29.409C74.2897 29.409 73.8586 29.3219 73.6575 29.1478C73.4563 28.9738 73.3413 28.6546 73.3413 28.1613C73.3413 27.8712 73.3413 27.6681 73.4276 27.494C73.485 27.3489 73.5425 27.2039 73.6575 27.1168C73.7437 27.0298 73.8874 26.9717 74.0598 26.9427C74.2322 26.9137 74.5196 26.8847 74.8358 26.8847C75.1519 26.8847 75.468 26.9137 75.6404 26.9717C75.8416 27.0298 75.9565 27.1168 76.0715 27.2619V26.5655C76.0715 26.2464 76.014 26.0433 75.8991 25.9272C75.7841 25.8402 75.468 25.7821 74.9507 25.7821C74.5771 25.7821 74.3472 25.8112 74.2322 25.8982C74.1173 25.9852 74.0598 26.1303 74.0598 26.3334H73.485V26.2464C73.485 25.8982 73.6 25.6661 73.8012 25.521C74.0311 25.3759 74.4047 25.3179 74.922 25.3179C75.3243 25.3179 75.6404 25.3179 75.8703 25.3759C76.1002 25.405 76.2439 25.463 76.3589 25.55C76.4738 25.6371 76.5601 25.7531 76.5888 25.8982C76.6463 26.0433 76.6463 26.2464 76.6463 26.5946V29.38H76.129V28.9738V28.9447ZM80.4685 27.6971V27.0588C80.4685 26.6526 80.3823 26.3334 80.1811 26.1593C79.9799 25.9853 79.6926 25.8692 79.2615 25.8692C78.8879 25.8692 78.6292 25.9272 78.5143 26.0723C78.3993 26.2174 78.3131 26.5365 78.3131 27.0298V27.6971C78.3131 28.1904 78.3706 28.5095 78.5143 28.6546C78.6292 28.7997 78.8879 28.8577 79.2615 28.8577C79.6926 28.8577 79.9799 28.7706 80.1811 28.5675C80.3823 28.3935 80.4685 28.0743 80.4685 27.6681V27.6971ZM81.0433 25.3759V29.2929C81.0433 29.8732 80.9283 30.2794 80.6984 30.5115C80.4685 30.7436 80.0662 30.8597 79.4914 30.8597H79.2327C78.7154 30.8597 78.3418 30.7727 78.1119 30.5696C77.882 30.3665 77.7383 30.0763 77.7096 29.6411H78.3131C78.3131 29.9022 78.4281 30.0763 78.543 30.1634C78.6867 30.2504 78.9166 30.3084 79.2615 30.3084H79.5201C79.865 30.3084 80.0949 30.2504 80.2673 30.1343C80.411 30.0183 80.4972 29.8442 80.4972 29.5831V28.7707C80.3823 29.0028 80.2386 29.1478 80.0374 29.2349C79.8362 29.3219 79.5776 29.38 79.2615 29.38C78.7154 29.38 78.3131 29.2639 78.0832 29.0318C77.8533 28.7997 77.7383 28.3935 77.7383 27.8132V26.8847C77.7383 26.3044 77.8533 25.8982 78.0832 25.6661C78.3131 25.434 78.7154 25.3179 79.2615 25.3179C79.6063 25.3179 79.865 25.3759 80.0662 25.492C80.2673 25.6081 80.411 25.7821 80.4972 26.0143V25.405H81.0433V25.3759ZM82.5951 26.9717H84.808V26.8267C84.808 26.4495 84.7505 26.2174 84.6068 26.0723C84.4631 25.9272 84.2045 25.8692 83.8309 25.8692H83.5722C83.1699 25.8692 82.9113 25.9272 82.7963 26.0723C82.6814 26.2174 82.5951 26.4495 82.5951 26.8267V26.9717ZM83.5722 29.38C82.9975 29.38 82.5664 29.2639 82.3365 29.0318C82.1066 28.7997 81.9916 28.3935 81.9916 27.8132V26.8847C81.9916 26.3044 82.1066 25.8982 82.3365 25.6661C82.5664 25.434 82.9687 25.3179 83.5722 25.3179H83.8309C84.4057 25.3179 84.8367 25.434 85.0667 25.6661C85.2966 25.8982 85.4115 26.3044 85.4115 26.8847V27.494H82.5951C82.5951 27.494 82.5951 27.5811 82.5951 27.6391C82.5951 27.6971 82.5951 27.7551 82.5951 27.8422C82.5951 28.2484 82.6526 28.5385 82.7963 28.6546C82.9113 28.7997 83.1986 28.8577 83.5722 28.8577H83.8309C84.1758 28.8577 84.4344 28.7997 84.5494 28.7126C84.6931 28.6256 84.7793 28.4225 84.7793 28.1904H85.3828C85.354 28.6256 85.2103 28.9447 84.9804 29.1188C84.7218 29.3219 84.3482 29.409 83.8309 29.409H83.5722V29.38ZM92.7973 27.6971V27.0298C92.7973 26.5365 92.7398 26.2174 92.5961 26.0723C92.4812 25.9272 92.1938 25.8692 91.7915 25.8692H91.5328C91.1305 25.8692 90.8718 25.9272 90.7569 26.0723C90.6419 26.2174 90.5844 26.5365 90.5844 27.0298V27.6971C90.5844 28.1904 90.6419 28.5095 90.7569 28.6546C90.8718 28.7997 91.1305 28.8577 91.5328 28.8577H91.7915C92.1938 28.8577 92.4524 28.7997 92.5961 28.6546C92.7111 28.5095 92.7973 28.1904 92.7973 27.6971ZM91.5615 29.38C90.9868 29.38 90.5557 29.2639 90.3258 29.0318C90.0959 28.7997 89.9809 28.3935 89.9809 27.8132V26.8847C89.9809 26.3044 90.0959 25.8982 90.3258 25.6661C90.5557 25.434 90.958 25.3179 91.5615 25.3179H91.8202C92.395 25.3179 92.826 25.434 93.056 25.6661C93.2859 25.8982 93.4008 26.3044 93.4008 26.8847V27.8132C93.4008 28.3935 93.2859 28.7997 93.056 29.0318C92.826 29.2639 92.4237 29.38 91.8202 29.38H91.5615ZM93.9468 25.8692V25.3759H94.4929C94.4929 25.3759 94.4929 25.3179 94.4929 25.2599C94.4929 25.2309 94.4929 25.1728 94.4929 25.0858C94.4929 24.5926 94.5791 24.2154 94.7515 24.0123C94.924 23.8092 95.2401 23.6931 95.6712 23.6931C95.7861 23.6931 95.9011 23.6931 95.9873 23.6931C96.1022 23.6931 96.1884 23.6931 96.3034 23.6931V24.2154C96.3034 24.2154 96.2172 24.2154 96.1597 24.2154C95.9873 24.2154 95.8723 24.2154 95.8148 24.2154C95.5275 24.2154 95.3263 24.2734 95.2113 24.3604C95.1251 24.4475 95.0676 24.6796 95.0676 25.0568V25.3179H96.3034V25.8112H95.0676V29.2639H94.4929V25.8112H93.9468V25.8692ZM101.218 27.0298V27.6681C101.218 28.0743 101.304 28.3644 101.505 28.5675C101.706 28.7416 101.994 28.8577 102.425 28.8577C102.798 28.8577 103.057 28.7997 103.172 28.6546C103.287 28.5095 103.373 28.1904 103.373 27.6971V27.0298C103.373 26.5365 103.316 26.2174 103.172 26.0723C103.057 25.9272 102.798 25.8692 102.425 25.8692C101.994 25.8692 101.706 25.9562 101.505 26.1593C101.304 26.3334 101.218 26.6526 101.218 27.0588V27.0298ZM100.643 29.3219V23.7221H101.218V25.9272C101.333 25.6951 101.476 25.55 101.677 25.463C101.879 25.3759 102.137 25.3179 102.453 25.3179C102.999 25.3179 103.402 25.434 103.632 25.6661C103.862 25.8982 103.977 26.3044 103.977 26.8847V27.8132C103.977 28.3935 103.862 28.7997 103.632 29.0318C103.402 29.2639 102.999 29.38 102.453 29.38C102.109 29.38 101.85 29.3219 101.649 29.2059C101.448 29.0898 101.304 28.9447 101.218 28.7126V29.3219H100.672H100.643ZM108.144 25.3469V29.3219H107.598V28.7707C107.511 28.9738 107.368 29.1188 107.138 29.2059C106.937 29.2929 106.649 29.3509 106.304 29.3509C105.787 29.3509 105.442 29.2349 105.212 29.0318C105.011 28.8287 104.896 28.4515 104.896 27.9292V25.3179H105.471V27.7842C105.471 28.1904 105.528 28.4805 105.643 28.5966C105.758 28.7126 105.988 28.7997 106.362 28.7997C106.764 28.7997 107.08 28.7126 107.253 28.5095C107.454 28.3354 107.54 28.0163 107.54 27.6101V25.2889H108.115L108.144 25.3469ZM109.121 28.1323H109.696V28.2194C109.696 28.4515 109.782 28.6256 109.925 28.7126C110.069 28.7997 110.385 28.8577 110.816 28.8577C111.334 28.8577 111.621 28.7997 111.736 28.7126C111.851 28.6256 111.908 28.4515 111.908 28.1613C111.908 27.8712 111.851 27.7261 111.765 27.6391C111.678 27.552 111.42 27.494 111.046 27.465C110.903 27.465 110.701 27.465 110.471 27.465C109.954 27.465 109.638 27.407 109.523 27.3489C109.379 27.2619 109.264 27.1458 109.207 27.0008C109.149 26.8557 109.121 26.6526 109.121 26.3915C109.121 25.9562 109.236 25.6661 109.466 25.492C109.696 25.3469 110.184 25.2599 110.931 25.2599C111.506 25.2599 111.908 25.3469 112.11 25.492C112.311 25.6371 112.426 25.8982 112.426 26.2754H111.851C111.851 26.0723 111.765 25.9272 111.621 25.8692C111.477 25.8112 111.161 25.7821 110.73 25.7821C110.299 25.7821 110.012 25.8112 109.897 25.8982C109.782 25.9852 109.724 26.1593 109.724 26.3915C109.724 26.5365 109.724 26.6526 109.753 26.7106C109.753 26.7686 109.81 26.8267 109.868 26.8557C109.983 26.9137 110.242 26.9427 110.644 26.9717C110.759 26.9717 110.816 26.9717 110.874 26.9717C111.19 26.9717 111.449 27.0008 111.65 27.0298C111.851 27.0298 111.966 27.0878 112.052 27.1168C112.225 27.2039 112.339 27.3199 112.426 27.465C112.512 27.6101 112.541 27.8422 112.541 28.1323C112.541 28.4225 112.512 28.6546 112.426 28.7997C112.339 28.9447 112.225 29.0898 112.023 29.2059C111.937 29.2639 111.793 29.2929 111.621 29.3219C111.42 29.3219 111.161 29.3509 110.816 29.3509C110.127 29.3509 109.667 29.2639 109.437 29.1188C109.207 28.9447 109.092 28.6546 109.092 28.2194V28.1033L109.121 28.1323ZM113.633 24.3604V23.6931H114.207V24.3604H113.633ZM113.633 29.2929V25.3179H114.207V29.2929H113.633ZM115.328 29.2929V25.3179H115.874V25.8692C115.961 25.6661 116.133 25.521 116.334 25.405C116.535 25.3179 116.823 25.2599 117.168 25.2599C117.685 25.2599 118.03 25.3759 118.26 25.579C118.461 25.7821 118.576 26.1593 118.576 26.6816V29.2929H118.001V26.8267C118.001 26.4205 117.943 26.1303 117.829 26.0143C117.714 25.8982 117.484 25.8112 117.139 25.8112C116.736 25.8112 116.42 25.8982 116.248 26.1013C116.047 26.3044 115.961 26.5946 115.961 27.0008V29.2929H115.386H115.328ZM120.099 26.9137H122.312V26.7686C122.312 26.3915 122.254 26.1593 122.111 26.0143C121.967 25.8692 121.708 25.8112 121.335 25.8112H121.076C120.674 25.8112 120.415 25.8692 120.3 26.0143C120.185 26.1593 120.099 26.3915 120.099 26.7686V26.9137ZM121.076 29.3219C120.501 29.3219 120.07 29.2059 119.84 28.9738C119.61 28.7416 119.495 28.3354 119.495 27.7551V26.8267C119.495 26.2464 119.61 25.8402 119.84 25.6081C120.07 25.3759 120.472 25.2599 121.076 25.2599H121.335C121.909 25.2599 122.34 25.3759 122.57 25.6081C122.8 25.8402 122.915 26.2464 122.915 26.8267V27.436H120.099C120.099 27.436 120.099 27.523 120.099 27.5811C120.099 27.6391 120.099 27.6971 120.099 27.7842C120.099 28.1904 120.156 28.4805 120.3 28.5966C120.415 28.7416 120.702 28.7997 121.076 28.7997H121.335C121.679 28.7997 121.938 28.7416 122.053 28.6546C122.197 28.5675 122.283 28.3644 122.283 28.1323H122.886C122.858 28.5675 122.714 28.8867 122.484 29.0608C122.226 29.2639 121.852 29.3509 121.335 29.3509H121.076V29.3219ZM123.749 28.0743H124.323V28.1613C124.323 28.3935 124.41 28.5675 124.553 28.6546C124.697 28.7416 125.013 28.7997 125.444 28.7997C125.962 28.7997 126.249 28.7416 126.364 28.6546C126.479 28.5675 126.536 28.3935 126.536 28.1033C126.536 27.8132 126.479 27.6681 126.393 27.5811C126.306 27.494 126.048 27.436 125.674 27.407C125.53 27.407 125.329 27.407 125.099 27.407C124.582 27.407 124.266 27.3489 124.151 27.2909C124.007 27.2039 123.892 27.0878 123.835 26.9427C123.777 26.7977 123.749 26.5946 123.749 26.3334C123.749 25.8982 123.864 25.6081 124.094 25.434C124.323 25.2889 124.812 25.2019 125.559 25.2019C126.134 25.2019 126.536 25.2889 126.737 25.434C126.939 25.579 127.054 25.8402 127.054 26.2174H126.479C126.479 26.0143 126.393 25.8692 126.249 25.8112C126.105 25.7531 125.789 25.7241 125.358 25.7241C124.927 25.7241 124.64 25.7531 124.525 25.8402C124.41 25.9272 124.352 26.1013 124.352 26.3334C124.352 26.4785 124.352 26.5946 124.381 26.6526C124.381 26.7106 124.438 26.7686 124.496 26.7977C124.611 26.8557 124.869 26.8847 125.272 26.9137C125.387 26.9137 125.444 26.9137 125.502 26.9137C125.818 26.9137 126.076 26.9427 126.278 26.9717C126.479 26.9717 126.594 27.0298 126.68 27.0588C126.852 27.1458 126.967 27.2619 127.054 27.407C127.14 27.552 127.169 27.7842 127.169 28.0743C127.169 28.3644 127.14 28.5966 127.054 28.7416C126.967 28.8867 126.852 29.0318 126.651 29.1478C126.565 29.2059 126.421 29.2349 126.249 29.2639C126.048 29.2639 125.789 29.2929 125.444 29.2929C124.755 29.2929 124.295 29.2059 124.065 29.0608C123.835 28.8867 123.72 28.5966 123.72 28.1613V28.0453L123.749 28.0743ZM128.117 28.0743H128.692V28.1613C128.692 28.3935 128.778 28.5675 128.922 28.6546C129.065 28.7416 129.381 28.7997 129.812 28.7997C130.33 28.7997 130.617 28.7416 130.732 28.6546C130.847 28.5675 130.905 28.3935 130.905 28.1033C130.905 27.8132 130.847 27.6681 130.761 27.5811C130.675 27.494 130.416 27.436 130.042 27.407C129.899 27.407 129.698 27.407 129.468 27.407C128.95 27.407 128.634 27.3489 128.519 27.2909C128.376 27.2039 128.261 27.0878 128.203 26.9427C128.146 26.7977 128.117 26.5946 128.117 26.3334C128.117 25.8982 128.232 25.6081 128.462 25.434C128.692 25.2889 129.18 25.2019 129.927 25.2019C130.502 25.2019 130.905 25.2889 131.106 25.434C131.307 25.579 131.422 25.8402 131.422 26.2174H130.847C130.847 26.0143 130.761 25.8692 130.617 25.8112C130.473 25.7531 130.157 25.7241 129.726 25.7241C129.295 25.7241 129.008 25.7531 128.893 25.8402C128.778 25.9272 128.72 26.1013 128.72 26.3334C128.72 26.4785 128.72 26.5946 128.749 26.6526C128.749 26.7106 128.807 26.7686 128.864 26.7977C128.979 26.8557 129.238 26.8847 129.64 26.9137C129.755 26.9137 129.812 26.9137 129.87 26.9137C130.186 26.9137 130.445 26.9427 130.646 26.9717C130.847 26.9717 130.962 27.0298 131.048 27.0588C131.221 27.1458 131.336 27.2619 131.422 27.407C131.508 27.552 131.537 27.7842 131.537 28.0743C131.537 28.3644 131.508 28.5966 131.422 28.7416C131.336 28.8867 131.221 29.0318 131.019 29.1478C130.933 29.2059 130.79 29.2349 130.617 29.2639C130.416 29.2639 130.157 29.2929 129.812 29.2929C129.123 29.2929 128.663 29.2059 128.433 29.0608C128.203 28.8867 128.088 28.5966 128.088 28.1613V28.0453L128.117 28.0743Z" fill="white"/>
<path d="M133.635 0.883812C135.445 0.883812 136.911 2.36356 136.911 4.19147C136.911 6.01939 135.445 7.49914 133.635 7.49914C131.824 7.49914 130.359 6.01939 130.359 4.19147C130.359 2.36356 131.824 0.883812 133.635 0.883812V0.883812Z" stroke="white" stroke-width="0.5" stroke-miterlimit="10"/>
<path d="M132.397 6.368H132.971V4.42402H133.517C134.035 4.42402 134.293 4.68515 134.408 5.29446C134.523 5.84574 134.638 6.22293 134.696 6.368H135.299C135.213 6.19391 135.098 5.75869 134.954 5.14939C134.839 4.68515 134.638 4.36599 134.293 4.24993C134.753 4.07585 135.127 3.66964 135.127 3.08935C135.127 2.74118 134.983 2.42202 134.782 2.24793C134.495 1.9868 134.092 1.87074 133.489 1.87074C133.086 1.87074 132.684 1.89975 132.397 1.95778V6.368ZM132.971 2.36399C132.971 2.36399 133.259 2.30596 133.546 2.30596C134.15 2.30596 134.581 2.56709 134.581 3.14738C134.581 3.66964 134.178 3.9888 133.575 3.9888H133V2.36399H132.971Z" fill="white"/>
</g>
<defs>
<clipPath id="clip0_310_222">
<rect width="137.083" height="32.8735" fill="white" transform="translate(0 0.0732403)"/>
</clipPath>
</defs>
</svg>
